<svg width="28" height="28" viewBox="0 0 28 28" fill="none" xmlns="http://www.w3.org/2000/svg">
<path d="M20 0H8C3.58172 0 0 3.58172 0 8V20C0 24.4183 3.58172 28 8 28H20C24.4183 28 28 24.4183 28 20V8C28 3.58172 24.4183 0 20 0Z" fill="#0289F7"/>
<path d="M9 7.5C9 6.94772 9.44772 6.5 10 6.5H16.5L19.5 9.5V20.5C19.5 21.0523 19.0523 21.5 18.5 21.5H10C9.44772 21.5 9 21.0523 9 20.5V7.5Z" fill="white"/>
<path d="M16.5 6.5V9.5H19.5L16.5 6.5Z" fill="#B3DDFB"/>
<rect x="11" y="11.5" width="6" height="1.2" rx="0.6" fill="#0289F7"/>
<rect x="11" y="13.7" width="6.5" height="1.2" rx="0.6" fill="#0289F7"/>
<path d="M11 17.5L12.5 19L16.5 15.5" stroke="#0289F7" stroke-width="1.5" stroke-linecap="round" stroke-linejoin="round" fill="none"/>
</svg>
